# Blender 4.2.1 LTS
# www.blender.org
mtllib tv2.mtl
o tv2
v -0.650354 1.214855 4.094319
v -0.650354 1.026308 3.790850
v -0.650354 1.120582 4.053662
v -0.650354 1.051569 3.942585
v -0.650354 6.114519 3.790850
v -0.650354 5.925972 4.094319
v -0.650354 6.089257 3.942585
v -0.650354 6.020245 4.053662
v -0.650354 1.026308 -3.791754
v -0.650354 1.214855 -4.095225
v -0.650354 1.051569 -3.943490
v -0.650354 1.120582 -4.054567
v -0.650354 5.925972 -4.095225
v -0.650354 6.114519 -3.791754
v -0.650354 6.020245 -4.054567
v -0.650354 6.089257 -3.943490
v -1.497485 1.214855 -4.095225
v -1.497485 1.026308 -3.791754
v -1.497485 1.155549 -3.887210
v -1.497485 1.120582 -4.054567
v -1.497485 1.051569 -3.943490
v -1.497485 1.026308 3.790850
v -1.497485 1.214855 4.094319
v -1.497485 1.155549 3.886305
v -1.497485 1.051569 3.942585
v -1.497485 1.120582 4.053662
v -1.497485 5.925972 4.094319
v -1.497485 6.114519 3.790850
v -1.497485 5.985278 3.886305
v -1.497485 6.020245 4.053662
v -1.497485 6.089257 3.942585
v -1.497485 6.114519 -3.791754
v -1.497485 5.925972 -4.095225
v -1.497485 5.985278 -3.887210
v -1.497485 6.089257 -3.943490
v -1.497485 6.020245 -4.054567
v -1.497485 1.447152 3.886160
v -1.497485 1.155639 3.416964
v -1.497485 1.155639 3.886160
v -1.497485 1.301396 3.823300
v -1.497485 1.194694 3.651562
v -1.497485 5.985188 3.416964
v -1.497485 5.693674 3.886160
v -1.497485 5.985188 3.886160
v -1.497485 5.946132 3.651562
v -1.497485 5.839431 3.823300
v -1.497485 1.155639 -3.417870
v -1.497485 1.447152 -3.887065
v -1.497485 1.155639 -3.887065
v -1.497485 1.194694 -3.652467
v -1.497485 1.301396 -3.824205
v -1.497485 5.693674 -3.887065
v -1.497485 5.985188 -3.417870
v -1.497485 5.985188 -3.887065
v -1.497485 5.839431 -3.824205
v -1.497485 5.946132 -3.652467
v -1.367070 1.561639 -3.702797
v -1.367070 1.270125 -3.233603
v -1.367070 1.415882 -3.639937
v -1.367070 1.309180 -3.468199
v -1.367070 1.270125 3.232697
v -1.367070 1.561639 3.701892
v -1.367070 1.309180 3.467295
v -1.367070 1.415882 3.639032
v -1.367070 5.579188 3.701892
v -1.367070 5.870702 3.232697
v -1.367070 5.724945 3.639032
v -1.367070 5.831646 3.467295
v -1.367070 5.870702 -3.233603
v -1.367070 5.579188 -3.702797
v -1.367070 5.831646 -3.468199
v -1.367070 5.724945 -3.639937
v 0.008899 2.084846 -2.325983
v 0.008899 2.069947 -2.236491
v 0.008899 2.125548 -2.391494
v 0.008899 2.181149 -2.415472
v 0.008899 5.070879 -2.236491
v 0.008899 5.055981 -2.325983
v 0.008899 5.015278 -2.391494
v 0.008899 4.959678 -2.415472
v 0.008899 2.069947 2.235586
v 0.008899 2.084846 2.325078
v 0.008899 2.125548 2.390589
v 0.008899 2.181149 2.414567
v 0.008899 5.055981 2.325078
v 0.008899 5.070879 2.235586
v 0.008899 5.015278 2.390589
v 0.008899 4.959678 2.414567
v -1.438463 0.514945 -2.409404
v -1.438463 0.000000 -2.409404
v -0.836285 0.514945 -2.896076
v -0.836285 0.000000 -2.896076
v -0.387127 0.618209 0.000000
v -0.387127 0.000000 0.000000
v 0.387127 0.618209 0.000000
v 0.387127 0.000000 0.000000
v -1.746553 0.000000 -2.908088
v -1.746553 0.201732 -2.908088
v -1.144375 0.201732 -3.394761
v -1.144375 0.000000 -3.394761
v -1.438463 0.514945 2.409404
v -1.438463 0.000000 2.409404
v -0.836285 0.514945 2.896077
v -0.836285 0.000000 2.896077
v -1.746553 0.000000 2.908088
v -1.746553 0.201732 2.908088
v -1.144375 0.201732 3.394761
v -1.144375 0.000000 3.394761
v -0.704697 1.330087 0.882070
v -0.511120 1.766168 0.437149
v -0.704697 1.330087 -0.882974
v -0.511120 1.766168 -0.438054
v -0.118166 1.330087 0.882070
v -0.130335 1.766168 0.437149
v -0.118166 1.330087 -0.882974
v -0.130335 1.766168 -0.438054
v -0.311116 0.592194 -0.664437
v -0.344389 0.592194 0.663533
v 0.072245 0.592194 -0.664437
v 0.072245 0.592194 0.663533
v -0.704697 1.330087 -0.000452
v -0.511120 1.766168 -0.000452
v 0.226999 1.330087 -0.000452
v -0.130335 1.766168 -0.000452
v -0.351653 0.592194 -0.000452
v 0.367542 0.592194 -0.000452
vn -1.0000 -0.0000 -0.0000
vn -0.8449 0.1256 -0.5200
vn -0.8449 -0.1256 -0.5200
vn -0.8376 -0.0858 -0.5395
vn -0.8376 0.0858 -0.5395
vn 0.5444 -0.1758 0.8202
vn 0.5444 0.1758 0.8202
vn -0.0000 0.2022 0.9793
vn -0.0000 -0.2022 0.9793
vn 0.5018 0.8611 -0.0823
vn -0.0000 0.9966 -0.0824
vn -0.0000 0.9966 0.0824
vn 0.5018 0.8611 0.0823
vn 0.5340 -0.5484 0.6435
vn 0.9448 -0.2239 0.2393
vn 0.9396 -0.0534 0.3381
vn -0.0000 -0.2022 -0.9793
vn -0.0000 0.2022 -0.9793
vn 0.5444 0.1758 -0.8202
vn 0.5444 -0.1758 -0.8202
vn -0.8449 -0.1256 0.5200
vn -0.8449 0.1256 0.5200
vn -0.8376 0.0858 0.5395
vn -0.8376 -0.0858 0.5395
vn -0.7212 -0.6877 -0.0832
vn -0.7212 -0.6877 0.0832
vn -0.6828 -0.7300 0.0297
vn -0.6828 -0.7300 -0.0297
vn 0.5018 -0.8611 -0.0823
vn -0.0000 -0.9966 -0.0824
vn -0.0000 -0.9357 -0.3527
vn 0.5275 -0.7900 -0.3126
vn -0.0000 -0.6526 -0.7577
vn 0.5340 -0.5484 -0.6435
vn 0.5275 0.7900 -0.3126
vn -0.0000 0.9357 -0.3527
vn 0.5340 0.5484 -0.6435
vn -0.0000 0.6526 -0.7577
vn -0.0000 -0.9966 0.0824
vn 0.5018 -0.8611 0.0823
vn 0.5275 -0.7900 0.3126
vn -0.0000 -0.9357 0.3527
vn -0.0000 -0.6526 0.7577
vn -0.0000 0.9357 0.3527
vn 0.5275 0.7900 0.3126
vn -0.0000 0.6526 0.7577
vn 0.5340 0.5484 0.6435
vn -0.7212 0.6877 0.0832
vn -0.6828 0.7300 0.0297
vn -0.7774 0.6041 0.1749
vn -0.8093 0.5364 0.2395
vn -0.8529 0.3536 0.3840
vn -0.8550 0.3304 0.3998
vn -0.8093 -0.5364 0.2395
vn -0.7774 -0.6041 0.1749
vn -0.8550 -0.3304 0.3998
vn -0.8529 -0.3536 0.3840
vn -0.7774 -0.6041 -0.1749
vn -0.8093 -0.5364 -0.2395
vn -0.8529 -0.3536 -0.3840
vn -0.8550 -0.3304 -0.3998
vn -0.6828 0.7300 -0.0297
vn -0.7212 0.6877 -0.0832
vn -0.8093 0.5364 -0.2395
vn -0.7774 0.6041 -0.1749
vn -0.8550 0.3304 -0.3998
vn -0.8529 0.3536 -0.3840
vn 1.0000 -0.0000 -0.0000
vn 0.9448 0.2238 -0.2393
vn 0.9396 0.0534 -0.3381
vn 0.9396 -0.0534 -0.3381
vn 0.9448 -0.2239 -0.2393
vn 0.9081 0.4033 0.1125
vn 0.8576 0.5140 0.0186
vn 0.8576 -0.5140 -0.0186
vn 0.8576 -0.5140 0.0186
vn 0.9081 -0.4033 -0.1125
vn 0.9081 -0.4033 0.1125
vn 0.8576 0.5140 -0.0186
vn 0.9081 0.4033 -0.1125
vn 0.9448 0.2238 0.2393
vn 0.9396 0.0534 0.3381
vn -0.9165 -0.0000 0.3999
vn 0.8507 -0.0000 -0.5256
vn -0.0000 -1.0000 -0.0000
vn -0.0119 0.9994 -0.0338
vn 0.9212 -0.0000 -0.3891
vn -0.6286 -0.0000 -0.7778
vn -0.2981 0.8804 -0.3688
vn -0.8507 -0.0000 0.5256
vn -0.9165 -0.0000 -0.3999
vn 0.8507 -0.0000 0.5256
vn -0.0119 0.9994 0.0338
vn 0.9212 -0.0000 0.3891
vn -0.6286 -0.0000 0.7778
vn -0.2981 0.8804 0.3688
vn -0.8507 -0.0000 -0.5256
vn -0.9140 0.4057 -0.0000
vn -0.0000 0.7142 -0.7000
vn 0.8517 0.4744 0.2227
vn -0.0000 0.7142 0.7000
vn -0.0000 -0.2840 -0.9588
vn -0.0000 1.0000 -0.0000
vn -0.8907 -0.4541 -0.0233
vn 0.9136 0.1489 0.3784
vn -0.0000 -0.2840 0.9588
vn 0.9136 0.1489 -0.3784
vn -0.9001 -0.4357 0.0042
vn 0.8517 0.4744 -0.2227
vt 0.318721 0.788594
vt 0.329389 0.790370
vt 0.337198 0.795222
vt 0.340057 0.801850
vt 0.340057 0.984543
vt 0.337199 0.991171
vt 0.329389 0.996023
vt 0.318721 0.997799
vt 0.024674 0.997799
vt 0.014006 0.996023
vt 0.006197 0.991171
vt 0.003338 0.984543
vt 0.003338 0.801850
vt 0.006197 0.795222
vt 0.014006 0.790370
vt 0.024674 0.788594
vt 0.480829 0.295871
vt 0.664005 0.283609
vt 0.659564 0.293581
vt 0.486278 0.304340
vt 0.648793 0.014535
vt 0.648793 0.228767
vt 0.610271 0.228767
vt 0.610271 0.014535
vt 0.731570 0.355081
vt 0.693048 0.355081
vt 0.693048 0.010272
vt 0.731570 0.010272
vt 0.813410 0.010681
vt 0.815154 0.006350
vt 0.896495 0.052068
vt 0.895467 0.054622
vt 0.653267 0.313557
vt 0.653267 0.527789
vt 0.614745 0.527789
vt 0.614745 0.313557
vt 0.669355 0.654292
vt 0.478607 0.654687
vt 0.483743 0.646658
vt 0.662949 0.645720
vt 0.463581 0.655294
vt 0.685834 0.654499
vt 0.685840 0.654508
vt 0.682664 0.664453
vt 0.466611 0.664454
vt 0.463575 0.655302
vt 0.466854 0.294794
vt 0.466079 0.317731
vt 0.463940 0.632186
vt 0.457359 0.649956
vt 0.460124 0.299770
vt 0.466849 0.294786
vt 0.680717 0.304312
vt 0.685300 0.629526
vt 0.676497 0.620374
vt 0.673301 0.313125
vt 0.678365 0.280727
vt 0.678369 0.280717
vt 0.686309 0.285426
vt 0.692419 0.648645
vt 0.469648 0.286860
vt 0.674477 0.272871
vt 0.462336 0.662822
vt 0.459051 0.658006
vt 0.458071 0.657773
vt 0.461426 0.291863
vt 0.462951 0.292353
vt 0.465894 0.288210
vt 0.678530 0.273796
vt 0.682095 0.277711
vt 0.683988 0.276899
vt 0.691802 0.657059
vt 0.688592 0.663473
vt 0.687274 0.662635
vt 0.299226 0.740029
vt 0.299226 0.778552
vt 0.292231 0.778552
vt 0.292231 0.740029
vt 0.614745 0.302942
vt 0.653267 0.302942
vt 0.653267 0.308888
vt 0.614745 0.308888
vt 0.731570 0.362076
vt 0.693048 0.362076
vt 0.731570 0.368022
vt 0.693048 0.368022
vt 0.653267 0.532458
vt 0.614745 0.532458
vt 0.644035 0.778551
vt 0.644035 0.740029
vt 0.651030 0.740029
vt 0.651030 0.778551
vt 0.610271 0.003920
vt 0.648793 0.003920
vt 0.648793 0.009866
vt 0.610271 0.009866
vt 0.693048 0.003277
vt 0.731570 0.003277
vt 0.648793 0.239382
vt 0.610271 0.239382
vt 0.610271 0.233436
vt 0.648793 0.233436
vt 0.473959 0.298740
vt 0.473952 0.298748
vt 0.468359 0.306488
vt 0.677663 0.293207
vt 0.671285 0.285645
vt 0.671277 0.285638
vt 0.465698 0.643454
vt 0.471231 0.651236
vt 0.471238 0.651245
vt 0.677525 0.650236
vt 0.677533 0.650226
vt 0.683466 0.641695
vt 0.472225 0.623545
vt 0.473685 0.634775
vt 0.478886 0.643934
vt 0.478892 0.643949
vt 0.674755 0.632194
vt 0.669011 0.641884
vt 0.669005 0.641902
vt 0.671153 0.302563
vt 0.666099 0.295966
vt 0.666083 0.295963
vt 0.474203 0.326839
vt 0.475680 0.315456
vt 0.480537 0.307563
vt 0.480549 0.307554
vt 0.984376 0.620519
vt 0.983698 0.624589
vt 0.981847 0.627568
vt 0.979319 0.628658
vt 0.852969 0.628658
vt 0.850441 0.627568
vt 0.848590 0.624589
vt 0.847912 0.620519
vt 0.847912 0.417157
vt 0.848590 0.413088
vt 0.850441 0.410109
vt 0.852969 0.409018
vt 0.979319 0.409018
vt 0.981847 0.410109
vt 0.983698 0.413088
vt 0.984376 0.417157
vt 0.930682 0.398369
vt 0.928938 0.402699
vt 0.847597 0.356982
vt 0.848626 0.354428
vt 0.928938 0.179806
vt 0.930682 0.184137
vt 0.848625 0.228078
vt 0.847597 0.225524
vt 0.314220 0.728214
vt 0.307297 0.727214
vt 0.380860 0.671490
vt 0.384943 0.672080
vt 0.753942 0.359703
vt 0.753942 0.704512
vt 0.697808 0.633789
vt 0.697808 0.430426
vt 0.752942 0.711435
vt 0.697219 0.637872
vt 0.752942 0.352780
vt 0.697219 0.426343
vt 0.665952 0.727214
vt 0.659029 0.728214
vt 0.588305 0.672080
vt 0.592389 0.671490
vt 0.820014 0.232671
vt 0.815154 0.229243
vt 0.896495 0.183526
vt 0.899361 0.185547
vt 0.820014 0.002923
vt 0.899361 0.050046
vt 0.813410 0.224913
vt 0.895467 0.180972
vt 0.671165 0.724353
vt 0.595463 0.669803
vt 0.924079 0.176379
vt 0.844731 0.223502
vt 0.773160 0.702486
vt 0.784524 0.413189
vt 0.841194 0.413189
vt 0.841194 0.702486
vt 0.454155 0.348258
vt 0.454155 0.412767
vt 0.431954 0.412766
vt 0.397485 0.348258
vt 0.291816 0.348133
vt 0.304816 0.002395
vt 0.382005 0.038478
vt 0.374530 0.327678
vt 0.011688 0.328623
vt 0.002556 0.039247
vt 0.079547 0.002743
vt 0.094522 0.348588
vt 0.386121 0.002275
vt 0.454155 0.002275
vt 0.429546 0.536932
vt 0.344340 0.536932
vt 0.344340 0.514732
vt 0.429546 0.514732
vt 0.085391 0.421156
vt 0.002556 0.401191
vt 0.382005 0.391753
vt 0.299290 0.412207
vt 0.818993 0.348680
vt 0.841193 0.348680
vt 0.737365 0.008623
vt 0.805398 0.008623
vt 0.805398 0.297920
vt 0.748729 0.297920
vt 0.348258 0.492188
vt 0.348258 0.435518
vt 0.412767 0.469987
vt 0.412766 0.492188
vt 0.197293 0.066469
vt 0.280008 0.086924
vt 0.287482 0.376124
vt 0.210294 0.412207
vt 0.109007 0.095276
vt 0.191841 0.075311
vt 0.176866 0.421156
vt 0.099875 0.384652
vt 0.002275 0.492188
vt 0.002275 0.424154
vt 0.442969 0.505611
vt 0.420768 0.505611
vt 0.420768 0.420405
vt 0.442969 0.420405
vt 0.099875 0.022708
vt 0.182710 0.002743
vt 0.204768 0.002395
vt 0.287482 0.022849
vt 0.805398 0.362429
vt 0.783198 0.362429
vt 0.801377 0.812050
vt 0.800305 0.717948
vt 0.886597 0.716955
vt 0.975427 0.810013
vt 0.478740 0.422848
vt 0.534207 0.306757
vt 0.608523 0.317568
vt 0.593210 0.439500
vt 0.185897 0.642129
vt 0.183620 0.750586
vt 0.096005 0.746906
vt 0.002730 0.663108
vt 0.477533 0.901947
vt 0.355601 0.917259
vt 0.344790 0.842943
vt 0.460880 0.787476
vt 0.608523 0.595100
vt 0.533704 0.584216
vt 0.470764 0.993324
vt 0.470764 0.918226
vt 0.557067 0.918226
vt 0.557067 0.993324
vt 0.604049 0.135279
vt 0.462210 0.135279
vt 0.520448 0.004328
vt 0.602616 0.004328
vt 0.934283 0.975427
vt 0.803120 0.973380
vt 0.043214 0.508289
vt 0.188952 0.496605
vt 0.621304 0.835947
vt 0.633133 0.917259
vt 0.368022 0.670777
vt 0.334071 0.514395
vt 0.627325 0.813977
vt 0.672192 0.975427
vt 0.596054 0.266229
vt 0.520448 0.266229
vt 0.384460 0.993324
vt 0.384460 0.918226
vt 0.271312 0.750586
vt 0.714013 0.718920
s 1
usemtl tv2.001
f 61/1/1 63/2/1 64/3/1 62/4/1 65/5/1 67/6/1 68/7/1 66/8/1 69/9/1 71/10/1 72/11/1 70/12/1 57/13/1 59/14/1 60/15/1 58/16/1
f 37/17/2 43/18/3 65/19/4 62/20/5
f 1/21/6 6/22/7 27/23/8 23/24/9
f 14/25/10 32/26/11 28/27/12 5/28/13
f 1/29/6 3/30/14 83/31/15 84/32/16
f 17/33/17 33/34/18 13/35/19 10/36/20
f 52/37/21 48/38/22 57/39/23 70/40/24
f 49/41/1 48/38/1 52/37/1 54/42/1 34/43/1 33/44/1 17/45/1 19/46/1
f 39/47/1 38/48/1 47/49/1 49/41/1 19/46/1 18/50/1 22/51/1 24/52/1
f 42/53/25 53/54/26 69/55/27 66/56/28
f 54/42/1 53/54/1 42/53/1 44/57/1 29/58/1 28/59/1 32/60/1 34/43/1
f 44/57/1 43/18/1 37/17/1 39/47/1 24/52/1 23/61/1 27/62/1 29/58/1
f 17/45/1 20/63/1 19/46/1
f 20/63/1 21/64/1 19/46/1
f 21/65/1 18/50/1 19/46/1
f 22/51/1 25/66/1 24/52/1
f 25/67/1 26/68/1 24/52/1
f 26/68/1 23/61/1 24/52/1
f 27/62/1 30/69/1 29/58/1
f 30/69/1 31/70/1 29/58/1
f 31/71/1 28/59/1 29/58/1
f 32/60/1 35/72/1 34/43/1
f 35/72/1 36/73/1 34/43/1
f 36/74/1 33/44/1 34/43/1
f 9/75/29 18/76/30 21/77/31 11/78/32
f 11/79/32 21/80/31 20/81/33 12/82/34
f 12/82/34 20/81/33 17/33/17 10/36/20
f 32/26/11 14/25/10 16/83/35 35/84/36
f 35/84/36 16/83/35 15/85/37 36/86/38
f 36/87/38 15/88/37 13/35/19 33/34/18
f 22/89/39 2/90/40 4/91/41 25/92/42
f 25/93/42 4/94/41 3/95/14 26/96/43
f 26/96/43 3/95/14 1/21/6 23/24/9
f 5/28/13 28/27/12 31/97/44 7/98/45
f 7/99/45 31/100/44 30/101/46 8/102/47
f 8/102/47 30/101/46 27/23/8 6/22/7
f 18/76/30 9/75/29 2/90/40 22/89/39
f 37/17/1 40/103/1 39/47/1
f 40/104/1 41/105/1 39/47/1
f 41/105/1 38/48/1 39/47/1
f 42/53/1 45/106/1 44/57/1
f 45/106/1 46/107/1 44/57/1
f 46/108/1 43/18/1 44/57/1
f 47/49/1 50/109/1 49/41/1
f 50/109/1 51/110/1 49/41/1
f 51/111/1 48/38/1 49/41/1
f 52/37/1 55/112/1 54/42/1
f 55/113/1 56/114/1 54/42/1
f 56/114/1 53/54/1 54/42/1
f 47/49/48 58/115/49 60/116/50 50/109/51
f 50/109/51 60/116/50 59/117/52 51/110/53
f 51/111/53 59/118/52 57/39/23 48/38/22
f 69/55/27 53/54/26 56/114/54 71/119/55
f 71/119/55 56/114/54 55/113/56 72/120/57
f 72/121/57 55/112/56 52/37/21 70/40/24
f 42/53/25 66/56/28 68/122/58 45/106/59
f 45/106/59 68/122/58 67/123/60 46/107/61
f 46/108/61 67/124/60 65/19/4 43/18/3
f 61/125/62 38/48/63 41/105/64 63/126/65
f 63/126/65 41/105/64 40/104/66 64/127/67
f 64/128/67 40/103/66 37/17/2 62/20/5
f 47/49/48 38/48/63 61/125/62 58/115/49
f 74/129/68 73/130/68 75/131/68 76/132/68 80/133/68 79/134/68 78/135/68 77/136/68 86/137/68 85/138/68 87/139/68 88/140/68 84/141/68 83/142/68 82/143/68 81/144/68
f 13/145/19 15/146/37 79/147/69 80/148/70
f 12/149/34 10/150/20 76/151/71 75/152/72
f 5/153/13 7/154/45 85/155/73 86/156/74
f 2/157/40 9/158/29 74/159/75 81/160/76
f 9/158/29 11/161/32 73/162/77 74/159/75
f 4/163/41 2/157/40 81/160/76 82/164/78
f 10/150/20 13/145/19 80/148/70 76/151/71
f 16/165/35 14/166/10 77/167/79 78/168/80
f 14/166/10 5/153/13 86/156/74 77/167/79
f 7/169/45 8/170/47 87/171/81 85/172/73
f 3/30/14 4/173/41 82/174/78 83/31/15
f 6/175/7 1/29/6 84/32/16 88/176/82
f 15/177/37 16/165/35 78/168/80 79/178/69
f 11/179/32 12/149/34 75/152/72 73/180/77
f 8/170/47 6/175/7 88/176/82 87/171/81
s 0
f 93/181/83 89/182/83 90/183/83 94/184/83
f 92/185/84 100/186/84 99/187/84 91/188/84
f 92/189/85 96/190/85 94/191/85 90/192/85
f 89/193/86 93/194/86 95/195/86 91/196/86
f 91/188/87 95/197/87 96/198/87 92/185/87
f 98/199/88 99/200/88 100/201/88 97/202/88
f 91/196/89 99/203/89 98/204/89 89/193/89
f 90/192/85 97/205/85 100/206/85 92/189/85
f 89/182/90 98/207/90 97/208/90 90/183/90
f 93/209/91 94/210/91 102/211/91 101/212/91
f 104/213/92 103/214/92 107/215/92 108/216/92
f 104/217/85 102/218/85 94/219/85 96/220/85
f 101/221/93 103/222/93 95/223/93 93/224/93
f 103/214/94 104/213/94 96/225/94 95/226/94
f 106/227/95 105/228/95 108/229/95 107/230/95
f 103/222/96 101/221/96 106/231/96 107/232/96
f 102/218/85 104/217/85 108/233/85 105/234/85
f 101/212/97 102/211/97 105/235/97 106/236/97
f 121/237/98 122/238/98 112/239/98 111/240/98
f 111/241/99 112/242/99 116/243/99 115/244/99
f 123/245/100 124/246/100 114/247/100 113/248/100
f 113/249/101 114/250/101 110/251/101 109/252/101
f 111/241/102 115/244/102 119/253/102 117/254/102
f 124/255/103 122/256/103 110/257/103 114/258/103
f 125/259/85 126/260/85 120/261/85 118/262/85
f 121/237/104 111/240/104 117/263/104 125/264/104
f 123/245/105 113/248/105 120/265/105 126/266/105
f 113/249/106 109/252/106 118/267/106 120/268/106
f 115/269/107 123/245/107 126/266/107 119/270/107
f 109/271/108 121/237/108 125/264/108 118/272/108
f 117/273/85 119/274/85 126/260/85 125/259/85
f 116/275/103 112/276/103 122/256/103 124/255/103
f 115/269/109 116/277/109 124/246/109 123/245/109
f 109/271/98 110/278/98 122/238/98 121/237/98
